<?xml version="1.0" encoding="utf-8"?>
<!-- Generator: Adobe Illustrator 16.0.0, SVG Export Plug-In . SVG Version: 6.00 Build 0)  -->
<!DOCTYPE svg PUBLIC "-//W3C//DTD SVG 1.1//EN" "http://www.w3.org/Graphics/SVG/1.1/DTD/svg11.dtd">
<svg version="1.1" id="Layer_2" xmlns="http://www.w3.org/2000/svg" xmlns:xlink="http://www.w3.org/1999/xlink" x="0px" y="0px"
	 width="1000px" height="1000px" viewBox="0 0 1000 1000" enable-background="new 0 0 1000 1000" xml:space="preserve">
<path display="none" fill="#E19026" d="M517.5,245.5c-13.255,0-24,7.835-24,17.5v28h48v-28C541.5,253.335,530.755,245.5,517.5,245.5
	z"/>
<path fill="#E19026" d="M916.799,733.969c-104.067-69.236-117.942-202.515-117.942-202.515l-15.608-207.711
	c-64.175-164.439-228.942-193.864-228.942-193.864V72.759c-6.441-33.4-35.79-42.005-50.504-44.225v-0.78
	c0,0-1.598,0.005-4.237,0.255c-2.637-0.249-4.231-0.253-4.231-0.253v0.779c-14.69,2.224-43.963,10.835-50.383,44.224v57.121
	c0,0-164.439,29.425-228.483,193.863l-15.579,207.711c0,0-13.847,133.279-117.703,202.516c0,0-36.35,77.893,51.927,77.893h360.22
	h8.469h360.963C953.221,811.861,916.799,733.969,916.799,733.969z"/>
<path fill="#E19026" d="M499.998,972.246c77.436,0,140.205-47.398,140.205-105.867H359.795
	C359.795,924.848,422.568,972.246,499.998,972.246z"/>
</svg>
