<?xml version="1.0" encoding="utf-8"?>
<!-- Generator: Adobe Illustrator 16.0.0, SVG Export Plug-In . SVG Version: 6.00 Build 0)  -->
<!DOCTYPE svg PUBLIC "-//W3C//DTD SVG 1.1//EN" "http://www.w3.org/Graphics/SVG/1.1/DTD/svg11.dtd">
<svg version="1.1" id="Layer_1" xmlns="http://www.w3.org/2000/svg" xmlns:xlink="http://www.w3.org/1999/xlink" x="0px" y="0px"
	 width="1000px" height="1000px" viewBox="0 0 1000 1000" enable-background="new 0 0 1000 1000" xml:space="preserve">
<path fill="#C4700C" d="M628.395,963.775c0,11.777-9.545,21.322-21.322,21.322H44.361c-11.777,0-21.324-9.545-21.324-21.322V154.102
	c0-11.777,9.546-21.323,21.324-21.323h562.711c11.777,0,21.322,9.546,21.322,21.323V963.775z"/>
<path fill="#FFFFFF" d="M581.415,902.909c0,10.007-8.11,18.116-18.117,18.116H85.189c-10.006,0-18.117-8.109-18.117-18.116V214.968
	c0-10.006,8.111-18.118,18.117-18.118h478.108c10.007,0,18.117,8.111,18.117,18.118V902.909z"/>
<path fill="none" stroke="#231F20" stroke-width="3" stroke-miterlimit="10" d="M134.387,356.899
	c22.747-17.763,49.924-31.744,78.384-21.042c12.332,4.638,18.72,17.05,29.595,21.636c18.538,7.817,37.402,2.884,58.243-0.546
	c22.413-3.689,54.205-16.287,76.648-11.322c15.276,3.38,29.065,22.347,42.375,27.954c24.713,10.409,52.945,0.692,80.384,0.498"/>
<path fill="none" stroke="#231F20" stroke-width="3" stroke-miterlimit="10" d="M146.656,474.687
	c34.967-5.16,61.667-40.947,95.029-25.26c12.18,5.727,18.765,16.982,32.31,20.344c31.394,7.792,61.914-18.025,90.596-14.881
	c18.922,2.074,32.503,23.123,56.426,27.833c17.362,3.417,39.969,4.224,56.916-0.673"/>
<path fill="none" stroke="#231F20" stroke-width="3" stroke-miterlimit="10" d="M166.287,577.751
	c27.308,15.332,73.434-34.474,105.391-31.941c25.868,2.051,27.632,23.533,47.227,34.504c26.702,14.951,69.318,2.066,96.899-2.555
	c18.721-3.136,29.278,0.721,47.404-0.008"/>
<path fill="none" stroke="#231F20" stroke-width="3" stroke-miterlimit="10" d="M176.103,685.722
	c22.461,23.578,86.157-0.284,112.373-12.754c39.113-18.604,41.194,3.544,69.937,32.631c25.188,25.49,38.329,5.051,74.41-2.258
	c18.242-3.695,36.395-2.895,54.925-2.895"/>
<path fill="none" stroke="#231F20" stroke-width="3" stroke-miterlimit="10" d="M183.463,825.595
	c32.238,12.544,87.496-34.548,125.752-29.56c21.259,2.771,26.338,23.664,43.466,29.678c31.749,11.145,81.323-32.743,115.186-34.472
	c17.353-0.887,37.541,6.104,51.781,9.814"/>
<path fill="#E19026" stroke="#231F20" stroke-width="2" stroke-miterlimit="10" d="M972.855,477.22
	c6.193,7.327,5.277,18.289-2.051,24.484c-84.252,71.229-337.009,284.92-337.009,284.92c-7.327,6.194-46.126-48.744-52.32-56.071
	c0,0,31.088,35.37,19.269,21.391c-6.194-7.328-43.984-41.577-36.657-47.771c84.252-71.231,252.756-213.691,337.009-284.92
	c7.327-6.196,18.289-5.276,24.483,2.05C937.399,435.282,961.035,463.24,972.855,477.22z"/>
<path fill="#FFFFFF" stroke="#231F20" stroke-width="3" stroke-miterlimit="10" d="M630.963,785.363
	c-0.902,0.18-1.803,0.36-2.703,0.54c-11.04,2.207-22.079,4.412-33.117,6.62c-15.47,3.093-30.938,6.187-46.409,9.28
	c-6.153,1.229-12.306,2.46-18.458,3.69c-2.112,0.421-4.225,0.842-6.34,1.267c-0.73,0.146-2.175,0.688-2.797,0.218
	c-1.802-1.374,1.223-6.271,1.833-7.677c1.102-2.538,2.204-5.075,3.307-7.612c2.863-6.591,5.723-13.18,8.587-19.767
	c6.296-14.498,12.593-28.995,18.892-43.49c3.142-7.238,6.288-14.479,9.433-21.718L630.963,785.363z"/>
<path fill="#ED1C24" d="M972.855,477.22c6.193,7.327,5.275,18.29-2.051,24.484l-38.996,32.969
	c-7.327,6.195-18.289,5.276-24.485-2.051l-47.274-55.918c-6.194-7.327-5.278-18.29,2.051-24.484l38.996-32.969
	c7.326-6.196,18.289-5.276,24.483,2.05L972.855,477.22z"/>
<rect x="829.115" y="464.295" transform="matrix(0.7637 -0.6456 0.6456 0.7637 -129.5676 682.616)" fill="#C4700C" width="76.931" height="107.971"/>
<text transform="matrix(0.7637 -0.6456 0.6456 0.7637 748.1816 655.6504)" fill="#FFFFFF" font-family="'Lobster-Regular'" font-size="104.2418">c</text>
<path fill="none" stroke="#050505" stroke-width="3" stroke-miterlimit="10" d="M526.961,803.338
	c1.054-0.523,2.278-0.393,3.411-0.34c0.302,2.063-3.952,2.621-3.213-0.113c-0.017,2.05-3.934,4.33-5.784,4.045
	c0.268-1.608,4.341-2.48,5.761-2.663c-1.129,0.529-2.187,0.847-3.411,0.64c-0.396-3.52,7.428-1.555,5.792,0.426
	c-0.632,0.764-4.276,0.563-4.72-0.102c-0.49-0.733-0.285-1.479,0.869-1.339c0.228,1.007-0.3,2.254-1.238,2.522"/>
</svg>
