<?xml version="1.0" encoding="utf-8"?>
<!-- Generator: Adobe Illustrator 16.0.0, SVG Export Plug-In . SVG Version: 6.00 Build 0)  -->
<!DOCTYPE svg PUBLIC "-//W3C//DTD SVG 1.1//EN" "http://www.w3.org/Graphics/SVG/1.1/DTD/svg11.dtd">
<svg version="1.1" id="Layer_1" xmlns="http://www.w3.org/2000/svg" xmlns:xlink="http://www.w3.org/1999/xlink" x="0px" y="0px"
	 width="1000px" height="1000px" viewBox="0 0 1000 1000" enable-background="new 0 0 1000 1000" xml:space="preserve">
<path fill="#FFFFFF" stroke="#E19026" stroke-width="10" stroke-miterlimit="10" d="M861.359,706.796
	c0-44.673-98.296-80.887-219.549-80.887c-121.254,0-219.55,36.214-219.55,80.887v192.237h0.025
	c-0.006,0.239-0.025,0.477-0.025,0.716c0,44.673,98.296,80.889,219.549,80.889c121.255,0,219.551-36.216,219.551-80.889
	c0-0.239-0.02-0.477-0.024-0.716h0.024V706.796z"/>
<ellipse fill="none" stroke="#E19026" stroke-width="10" stroke-miterlimit="10" cx="641.81" cy="706.796" rx="219.55" ry="80.887"/>
<ellipse fill="#FFFFFF" stroke="#E19026" stroke-width="10" stroke-miterlimit="10" cx="641.81" cy="726.946" rx="186.434" ry="59.202"/>
<path fill="#FFFFFF" stroke="#E19026" stroke-width="10" stroke-miterlimit="10" d="M881.211,733.911
	c-6.802,0-13.439,0.581-19.852,1.687v29.164c33.819,5.299,59.437,30.32,59.437,60.409c0,30.088-25.617,38.559-59.437,43.859v30.051
	c6.416,1.106,13.048,1.706,19.852,1.706c54.579,0,98.826-37.356,98.826-83.437C980.037,771.269,935.79,733.911,881.211,733.911z"/>
<text transform="matrix(1 0 0 1 620.8672 930.5664)" fill="#E19026" font-family="'Lobster-Regular'" font-size="200.2883">c</text>
<path fill="#FFFFFF" stroke="#E19026" stroke-width="10" stroke-miterlimit="10" d="M262.213,184.974
	c34.096-28.864,122.207,19.17,196.799,107.287c74.595,88.116,107.426,182.947,73.328,211.81L385.617,628.278l-0.016-0.018
	c-0.179,0.159-0.347,0.326-0.53,0.479c-34.097,28.865-122.209-19.169-196.802-107.283
	c-74.594-88.118-107.422-182.949-73.326-211.813c0.183-0.156,0.375-0.295,0.561-0.446l-0.014-0.018L262.213,184.974z"/>
<ellipse transform="matrix(-0.6461 -0.7632 0.7632 -0.6461 391.0079 870.3404)" fill="none" stroke="#E19026" stroke-width="10" stroke-miterlimit="10" cx="397.276" cy="344.522" rx="209.04" ry="80.887"/>
<ellipse transform="matrix(-0.6461 -0.7632 0.7632 -0.6461 355.7549 880.0341)" fill="#FFFFFF" stroke="#E19026" stroke-width="10" stroke-miterlimit="10" cx="381.897" cy="357.542" rx="177.511" ry="59.202"/>
<path fill="#FFFFFF" stroke="#E19026" stroke-width="10" stroke-miterlimit="10" d="M229.305,188.067
	c4.185,4.942,7.824,10.142,10.926,15.516l-22.26,18.844c-24.849-21.154-59.707-23.603-82.671-4.163
	c-22.965,19.44-13.67,43.529,3.089,71.531l-22.937,19.417c-4.791-3.95-9.329-8.379-13.514-13.325
	c-33.577-39.662-32.285-95.954,2.886-125.727C139.995,140.387,195.729,148.404,229.305,188.067z"/>
<text transform="matrix(0.6461 0.7632 -0.7632 0.6461 196.5273 453.6865)" fill="#E19026" font-family="'Lobster-Regular'" font-size="200.2883">c</text>
<path fill="#B26B18" stroke="#B26B18" stroke-width="10" stroke-miterlimit="10" d="M411,453.729"/>
<path fill="none" stroke="#B26B18" stroke-width="16" stroke-miterlimit="10" d="M653.222,706.893
	c-4.859-18.689-21.138-52.488-21.138-69.765c0-20.306-11.217-66.16-11.217-88.449s-39.78-49.086-39.78-68.997
	s-39.754-41.412-39.754-59.25s-57.667-16.973-57.667-33.666s-51.333-30.16-51.333-16.667c0,5.983-8.718,9.758-18.422,13.262
	c-6.012-7.512-12.334-15.146-18.932-22.836c-58.194-67.821-115.518-114.095-128.036-103.354
	c-12.519,10.741,24.51,74.428,82.704,142.251c50.338,58.666,100.018,101.199,120.618,104.665c0.001,0.08,0.009,0.158,0.009,0.238
	c0,30.183,46.612,89.124,46.612,135.952c0,35.693,12.021,57.442,17.74,76.385c-30.409,6.641-49.408,16.071-49.408,26.535
	c0,20.104,70.107,36.401,156.591,36.401c86.482,0,156.59-16.298,156.59-36.401C798.399,723.986,734.376,708.252,653.222,706.893z"/>
</svg>
