<?xml version="1.0" encoding="utf-8"?>
<!-- Generator: Adobe Illustrator 16.0.0, SVG Export Plug-In . SVG Version: 6.00 Build 0)  -->
<!DOCTYPE svg PUBLIC "-//W3C//DTD SVG 1.1//EN" "http://www.w3.org/Graphics/SVG/1.1/DTD/svg11.dtd">
<svg version="1.1" id="Layer_1" xmlns="http://www.w3.org/2000/svg" xmlns:xlink="http://www.w3.org/1999/xlink" x="0px" y="0px"
	 width="1000px" height="1000px" viewBox="0 0 1000 1000" enable-background="new 0 0 1000 1000" xml:space="preserve">
<polygon fill="none" stroke="#231F20" stroke-width="10" stroke-miterlimit="10" points="289.117,921.439 560.781,506.551 
	501.321,466.604 230.443,880.321 229.606,879.737 211.446,971.199 289.408,921.644 "/>
<ellipse transform="matrix(0.8378 0.546 -0.546 0.8378 344.9323 -220.95)" fill="none" stroke="#E19026" stroke-width="10" stroke-miterlimit="10" cx="544.29" cy="469.991" rx="247.216" ry="78.835"/>
<path fill="none" stroke="#B26B18" stroke-width="10" stroke-miterlimit="10" d="M712.906,546.04
	c-86.63,24.702-273.316-98.399-298.456-194.522C396.785,283.974,523.706,53.739,540.997,77.767
	c61.336,85.234,193.483,190.231,336.84,228.724C948.61,325.495,779.294,527.113,712.906,546.04z"/>
<ellipse transform="matrix(0.8378 0.546 -0.546 0.8378 213.1569 -376.0177)" fill="none" stroke="#E19026" stroke-width="10" stroke-miterlimit="10" cx="739.359" cy="170.702" rx="247.216" ry="63.445"/>
<text transform="matrix(0.822 0.5696 -0.5696 0.822 560.7813 356.3701)" fill="#E19026" font-family="'Lobster-Regular'" font-size="247.2518">c</text>
</svg>
