<?xml version="1.0" encoding="utf-8"?>
<!-- Generator: Adobe Illustrator 16.0.0, SVG Export Plug-In . SVG Version: 6.00 Build 0)  -->
<!DOCTYPE svg PUBLIC "-//W3C//DTD SVG 1.1//EN" "http://www.w3.org/Graphics/SVG/1.1/DTD/svg11.dtd">
<svg version="1.1" id="Layer_1" xmlns="http://www.w3.org/2000/svg" xmlns:xlink="http://www.w3.org/1999/xlink" x="0px" y="0px"
	 width="1000px" height="1000px" viewBox="0 0 1000 1000" enable-background="new 0 0 1000 1000" xml:space="preserve">
<ellipse fill="none" stroke="#E19026" stroke-width="10" stroke-miterlimit="10" cx="500" cy="786.866" rx="473.706" ry="197.969"/>
<path fill="#FFFFFF" stroke="#E19026" stroke-width="10" stroke-miterlimit="10" d="M790.754,474.799
	c0-60.134-132.315-108.882-295.534-108.882c-163.22,0-295.537,48.748-295.537,108.882v258.771h0.033
	c-0.009,0.322-0.034,0.642-0.034,0.964c0,60.135,132.316,108.884,295.535,108.884c163.221,0,295.537-48.749,295.537-108.884
	c0-0.322-0.025-0.642-0.032-0.964h0.032V474.799z"/>
<ellipse fill="none" stroke="#E19026" stroke-width="10" stroke-miterlimit="10" cx="495.219" cy="474.799" rx="295.535" ry="108.882"/>
<ellipse fill="#FFFFFF" stroke="#E19026" stroke-width="10" stroke-miterlimit="10" cx="495.219" cy="501.924" rx="250.959" ry="79.691"/>
<path fill="#FFFFFF" stroke="#E19026" stroke-width="10" stroke-miterlimit="10" d="M817.477,511.299
	c-9.155,0-18.091,0.782-26.723,2.271v39.258c45.524,7.133,80.008,40.814,80.008,81.316s-34.483,51.904-80.008,59.039v40.451
	c8.637,1.49,17.564,2.297,26.723,2.297c73.469,0,133.029-50.285,133.029-112.314C950.506,561.586,890.945,511.299,817.477,511.299z"
	/>
<text transform="matrix(1 0 0 1 467.0278 776.0156)" fill="#E19026" font-family="'Lobster-Regular'" font-size="269.608">c</text>
</svg>
