<?xml version="1.0" encoding="utf-8"?>
<!-- Generator: Adobe Illustrator 16.0.0, SVG Export Plug-In . SVG Version: 6.00 Build 0)  -->
<!DOCTYPE svg PUBLIC "-//W3C//DTD SVG 1.1//EN" "http://www.w3.org/Graphics/SVG/1.1/DTD/svg11.dtd">
<svg version="1.1" id="Layer_1" xmlns="http://www.w3.org/2000/svg" xmlns:xlink="http://www.w3.org/1999/xlink" x="0px" y="0px"
	 width="1000px" height="1000px" viewBox="0 0 1000 1000" enable-background="new 0 0 1000 1000" xml:space="preserve">
<path fill="#E19026" stroke="#CE8228" stroke-width="10" stroke-miterlimit="10" d="M262.213,184.974
	c34.096-28.864,122.207,19.17,196.799,107.287c74.595,88.116,107.426,182.947,73.328,211.81L385.617,628.278l-0.016-0.018
	c-0.179,0.159-0.347,0.326-0.53,0.479c-34.097,28.865-122.209-19.169-196.802-107.283
	c-74.594-88.118-107.422-182.949-73.326-211.813c0.183-0.156,0.375-0.295,0.561-0.446l-0.014-0.018L262.213,184.974z"/>
<ellipse transform="matrix(-0.6461 -0.7632 0.7632 -0.6461 354.1088 879.2709)" opacity="0.7" fill="#FFFFFF" stroke="#E19026" stroke-width="10" stroke-miterlimit="10" cx="380.897" cy="357.542" rx="177.511" ry="59.202"/>
<ellipse transform="matrix(-0.6461 -0.7632 0.7632 -0.6461 391.0079 870.3404)" fill="none" stroke="#CE8228" stroke-width="10" stroke-miterlimit="10" cx="397.276" cy="344.522" rx="209.04" ry="80.887"/>
<path fill="#E19026" stroke="#CE8228" stroke-width="10" stroke-miterlimit="10" d="M229.305,188.067
	c4.185,4.942,7.824,10.142,10.926,15.516l-22.26,18.844c-24.849-21.154-59.707-23.603-82.671-4.163
	c-22.965,19.44-13.67,43.529,3.089,71.531l-22.937,19.417c-4.791-3.95-9.329-8.379-13.514-13.325
	c-33.577-39.662-32.285-95.954,2.886-125.727C139.995,140.387,195.729,148.404,229.305,188.067z"/>
<text transform="matrix(0.6461 0.7632 -0.7632 0.6461 196.5273 453.6865)" fill="#FFFFFF" font-family="'Lobster-Regular'" font-size="200.2883">c</text>
<path fill="#B26B18" stroke="#B26B18" stroke-width="10" stroke-miterlimit="10" d="M411,453.729"/>
<path fill="#E19026" stroke="#CE8228" stroke-width="10" stroke-miterlimit="10" d="M861.01,706.847
	c0.011-44.673-98.193-80.91-219.342-80.939c-121.149-0.029-219.371,36.16-219.381,80.833l-0.047,192.237l0.026,0.001
	c-0.009,0.239-0.03,0.476-0.025,0.714c-0.015,44.674,98.189,80.914,219.338,80.943c121.153,0.028,219.37-36.163,219.385-80.835
	c-0.001-0.24-0.022-0.478-0.026-0.717h0.025L861.01,706.847z"/>
<ellipse transform="matrix(1 2.437810e-004 -2.437810e-004 1 0.1774 -0.1566)" opacity="0.7" fill="#FFFFFF" stroke="#E19026" stroke-width="10" stroke-miterlimit="10" cx="642.322" cy="727.708" rx="186.274" ry="59.202"/>
<path fill="none" stroke="#CE8228" stroke-width="10" stroke-miterlimit="10" d="M422.25,701.745
	c-1.109,44.659,96.215,83.304,217.379,86.313c121.165,3.01,220.289-30.751,221.396-75.41c1.112-44.659-96.212-83.303-217.379-86.313
	C522.484,623.325,423.36,657.087,422.25,701.745z"/>
<path fill="#E19026" stroke="#CE8228" stroke-width="10" stroke-miterlimit="10" d="M880.838,733.968
	c-6.796-0.003-13.431,0.578-19.834,1.681l-0.006,29.165c33.787,5.307,59.377,30.334,59.367,60.422
	c-0.005,30.088-25.602,38.553-59.396,43.847l-0.006,30.052c6.41,1.105,13.037,1.708,19.834,1.71
	c54.533,0.014,98.752-37.332,98.761-83.413C979.57,771.35,935.368,733.979,880.838,733.968z"/>
<path fill="#B5671A" stroke="#B26B18" stroke-width="16" stroke-miterlimit="10" d="M660.222,706.893
	c-4.859-18.689-21.138-52.488-21.138-69.765c0-20.306-11.217-66.16-11.217-88.449s-39.78-49.086-39.78-68.997
	s-39.754-41.412-39.754-59.25s-57.667-16.973-57.667-33.666s-51.333-30.16-51.333-16.667c0,5.983-8.718,9.758-18.422,13.262
	c-6.012-7.512-12.334-15.146-18.932-22.836c-58.194-67.821-115.518-114.095-128.036-103.354
	c-12.519,10.741,24.51,74.428,82.704,142.251c50.338,58.666,100.018,101.199,120.618,104.665c0.001,0.08,0.009,0.158,0.009,0.238
	c0,30.183,46.612,89.124,46.612,135.952c0,35.693,12.021,57.442,17.74,76.385c-30.409,6.641-49.408,16.071-49.408,26.535
	c0,20.104,70.107,36.401,156.591,36.401c86.482,0,156.59-16.298,156.59-36.401C805.399,723.986,741.376,708.252,660.222,706.893z"/>
<text transform="matrix(0.9999 -0.0157 0.0157 0.9999 607.4219 923.2979)" fill="#FFFFFF" font-family="'Lobster-Regular'" font-size="200.2883">c</text>
</svg>
