<?xml version="1.0" encoding="utf-8"?>
<!-- Generator: Adobe Illustrator 16.0.0, SVG Export Plug-In . SVG Version: 6.00 Build 0)  -->
<!DOCTYPE svg PUBLIC "-//W3C//DTD SVG 1.1//EN" "http://www.w3.org/Graphics/SVG/1.1/DTD/svg11.dtd">
<svg version="1.1" id="Layer_1" xmlns="http://www.w3.org/2000/svg" xmlns:xlink="http://www.w3.org/1999/xlink" x="0px" y="0px"
	 width="1000px" height="1000px" viewBox="0 0 1000 1000" enable-background="new 0 0 1000 1000" xml:space="preserve">
<ellipse fill="none" stroke="#CE8228" stroke-width="16" stroke-miterlimit="10" cx="505.031" cy="783.223" rx="480.969" ry="201.002"/>
<ellipse opacity="0.8" fill="#E19026" stroke="#CE8228" stroke-width="16" stroke-miterlimit="10" cx="505.031" cy="783.223" rx="480.969" ry="201.002"/>
<path fill="#E19026" stroke="#CE8228" stroke-width="10" stroke-miterlimit="10" d="M800.243,466.369
	c0-61.057-134.346-110.552-300.066-110.552c-165.723,0-300.067,49.495-300.067,110.552v262.736h0.033
	c-0.008,0.329-0.033,0.651-0.033,0.98c0,61.057,134.345,110.553,300.066,110.553c165.723,0,300.068-49.496,300.068-110.553
	c0-0.329-0.026-0.651-0.033-0.98h0.033V466.369z"/>
<ellipse fill="#FFFFFF" stroke="#CE8228" stroke-width="10" stroke-miterlimit="10" cx="500.176" cy="466.369" rx="300.067" ry="110.551"/>
<ellipse opacity="0.8" fill="#E19026" stroke="#CE8228" stroke-width="10" stroke-miterlimit="10" cx="500.031" cy="463.369" rx="300.067" ry="110.551"/>
<ellipse fill="#B26B18" stroke="#B26B18" stroke-width="10" stroke-miterlimit="10" cx="500.177" cy="476.968" rx="254.808" ry="80.914"/>
<path fill="#E19026" stroke="#CE8228" stroke-width="10" stroke-miterlimit="10" d="M827.373,503.429
	c-9.294,0-18.367,0.794-27.13,2.304v39.86c46.223,7.243,81.233,41.44,81.233,82.564c0,41.123-35.011,52.7-81.233,59.944v41.072
	c8.77,1.512,17.832,2.332,27.13,2.332c74.597,0,135.071-51.058,135.071-114.039C962.444,554.486,901.97,503.429,827.373,503.429z"/>
<text transform="matrix(0.4773 0 0 1 621.5723 307.4751)" fill="none" stroke="#E19026" stroke-width="6" stroke-miterlimit="10" font-family="'Pristina-Regular'" font-size="391.346">s</text>
<text transform="matrix(0.4773 0 0 1 493.167 271.9009)" fill="none" stroke="#E19026" stroke-width="6" stroke-miterlimit="10" font-family="'Pristina-Regular'" font-size="391.346">s</text>
<text transform="matrix(0.4773 0 0 1 361.0225 307.4751)" fill="none" stroke="#E19026" stroke-width="6" stroke-miterlimit="10" font-family="'Pristina-Regular'" font-size="391.346">s</text>
<text transform="matrix(1 0 0 1 471.5479 772.2012)" fill="#FFFFFF" font-family="'Lobster-Regular'" font-size="273.7419">c</text>
</svg>
