<?xml version="1.0" encoding="utf-8"?>
<!-- Generator: Adobe Illustrator 16.0.0, SVG Export Plug-In . SVG Version: 6.00 Build 0)  -->
<!DOCTYPE svg PUBLIC "-//W3C//DTD SVG 1.1//EN" "http://www.w3.org/Graphics/SVG/1.1/DTD/svg11.dtd">
<svg version="1.1" xmlns="http://www.w3.org/2000/svg" xmlns:xlink="http://www.w3.org/1999/xlink" x="0px" y="0px" width="1000px"
	 height="1000px" viewBox="0 0 1000 1000" enable-background="new 0 0 1000 1000" xml:space="preserve">
<g id="Layer_1" display="none">
</g>
<g id="Layer_2">
	<path fill="#E19026" d="M149.465,325.626v-55.465c13.448-16.258,21.725-38.289,21.725-62.573c0-27.063-10.273-51.334-26.538-67.921
		c-2.359-3.325-5.467-6.075-9.092-7.992c-12.255-9.227-26.87-14.607-42.579-14.607c-43.194,0-78.209,40.527-78.209,90.521
		c0,25.149,8.867,47.896,23.173,64.3v97.188c0,14.397,11.672,26.069,26.069,26.069h59.382c14.398,0,26.07-11.672,26.07-26.069v2.896
		h420.013v-46.347H149.465z"/>
	
		<circle opacity="0.7" fill="#E19026" stroke="#E19026" stroke-width="10" stroke-miterlimit="10" cx="615.825" cy="356.317" r="50.691"/>
	<circle fill="none" stroke="#E19026" stroke-width="10" stroke-miterlimit="10" cx="615.825" cy="356.317" r="50.691"/>
	<polygon opacity="0.7" fill="#E19026" stroke="#E19026" stroke-width="10" stroke-miterlimit="10" points="805.901,409.407 
		615.775,738.598 425.75,409.348 	"/>
	<polygon fill="none" stroke="#E19026" stroke-width="10" stroke-miterlimit="10" points="805.901,409.407 615.775,738.598 
		425.75,409.348 	"/>
	<path fill="#E19026" stroke="#E19026" stroke-width="10" stroke-miterlimit="10" d="M985.229,964.113
		c0,11.742-9.519,21.261-21.26,21.261H267.683c-11.741,0-21.26-9.519-21.26-21.261V643.034c0-11.743,9.519-21.261,21.26-21.261
		h696.286c11.741,0,21.26,9.518,21.26,21.261V964.113z"/>
	<path fill="#B26B18" d="M938.801,886.816c0,14.397-11.673,26.07-26.07,26.07H318.194c-14.398,0-26.069-11.673-26.069-26.07V713.018
		c0-14.396,11.671-26.069,26.069-26.069H912.73c14.397,0,26.07,11.673,26.07,26.069V886.816z"/>
	<circle fill="#E19026" stroke="#E19026" stroke-width="10" stroke-miterlimit="10" cx="615.826" cy="803.573" r="41.277"/>
	
		<ellipse transform="matrix(0.737 0.6759 -0.6759 0.737 431.0171 -399.6821)" fill="#B26B18" stroke="#D67B21" stroke-width="5" stroke-miterlimit="10" cx="729.105" cy="354.021" rx="29.209" ry="21.379"/>
	<path fill="#B26B18" stroke="#D67B21" stroke-width="5" stroke-miterlimit="10" d="M709.336,332.103
		c0,0,20.748,2.727,21.364,20.805c0.616,18.078,18.852,21.925,18.852,21.925"/>
	
		<ellipse transform="matrix(-0.0029 1 -1 -0.0029 1067.0148 -476.2387)" fill="#B26B18" stroke="#D67B21" stroke-width="5" stroke-miterlimit="10" cx="770.931" cy="293.83" rx="29.21" ry="21.379"/>
	<path fill="#B26B18" stroke="#D67B21" stroke-width="5" stroke-miterlimit="10" d="M773.81,264.453c0,0,11.964,17.17-0.98,29.805
		s-3.502,28.702-3.502,28.702"/>
	
		<ellipse transform="matrix(-0.771 0.6369 -0.6369 -0.771 1585.355 -113.2263)" fill="#B26B18" stroke="#D67B21" stroke-width="5" stroke-miterlimit="10" cx="813.037" cy="228.455" rx="29.21" ry="21.379"/>
	<path fill="#B26B18" stroke="#D67B21" stroke-width="5" stroke-miterlimit="10" d="M837.471,211.896c0,0-5.56,20.174-23.55,18.293
		c-17.99-1.88-24.313,15.65-24.313,15.65"/>
</g>
</svg>
