<?xml version="1.0" encoding="utf-8"?>
<!-- Generator: Adobe Illustrator 16.0.0, SVG Export Plug-In . SVG Version: 6.00 Build 0)  -->
<!DOCTYPE svg PUBLIC "-//W3C//DTD SVG 1.1//EN" "http://www.w3.org/Graphics/SVG/1.1/DTD/svg11.dtd">
<svg version="1.1" id="Layer_2" xmlns="http://www.w3.org/2000/svg" xmlns:xlink="http://www.w3.org/1999/xlink" x="0px" y="0px"
	 width="1000px" height="1000px" viewBox="0 0 1000 1000" enable-background="new 0 0 1000 1000" xml:space="preserve">
<g>
	<path fill="#E19026" d="M505.727,313.852c-65.884,0-126.22-4.936-172.966-13.123c-4.469,15.97-6.864,32.831-6.864,50.262
		c0,101.106,80.514,183.072,179.831,183.072c99.318,0,179.83-81.966,179.83-183.072c0-17.431-2.394-34.292-6.862-50.262
		C631.948,308.916,571.611,313.852,505.727,313.852z"/>
</g>
<g>
	<path fill="#E19026" d="M685.557,204.28v0.124v2.703c-44.08,5.394-107.155,8.772-177.214,8.772
		c-72.874,0-138.202-3.654-182.447-9.43v-2.044v-0.124c-54.601,10.236-88.935,25.062-88.935,41.556
		c0,30.883,120.331,55.92,268.765,55.92s268.766-25.037,268.766-55.92C774.492,229.342,740.158,214.516,685.557,204.28z"/>
	<path fill="#E19026" d="M685.557,196.152v-2.705v-34.341v-44.545c0-43.568-80.512-78.888-179.83-78.888
		s-179.831,35.319-179.831,78.888v45.204v33.682v2.046c44.245,5.776,109.573,9.43,182.447,9.43
		C578.401,204.923,641.477,201.545,685.557,196.152z"/>
</g>
<path fill="#E19026" d="M794.625,909.052c-0.002-0.427-0.007-0.853-0.011-1.278C792.813,873.591,664.215,846,505.81,846
	c-158.404,0-287.004,27.591-288.805,61.773c-0.003,0.426-0.008,0.852-0.01,1.278C218.366,943.316,347.136,971,505.81,971
	S793.254,943.316,794.625,909.052z"/>
<path fill="#E19026" d="M793.396,913.928c1.518-13.189,2.304-26.63,2.304-40.273c0-175.717-129.824-318.163-289.975-318.163
	c-160.146,0-289.973,142.446-289.973,318.163c0,13.644,0.786,27.084,2.303,40.273H793.396z"/>
</svg>
