<?xml version="1.0" encoding="utf-8"?>
<!-- Generator: Adobe Illustrator 16.0.0, SVG Export Plug-In . SVG Version: 6.00 Build 0)  -->
<!DOCTYPE svg PUBLIC "-//W3C//DTD SVG 1.1//EN" "http://www.w3.org/Graphics/SVG/1.1/DTD/svg11.dtd">
<svg version="1.1" id="Layer_1" xmlns="http://www.w3.org/2000/svg" xmlns:xlink="http://www.w3.org/1999/xlink" x="0px" y="0px"
	 width="1000px" height="1000px" viewBox="0 0 1000 1000" enable-background="new 0 0 1000 1000" xml:space="preserve">
<path fill="#B26B18" d="M936.399,968.8c-9.78,16.203-30.845,21.41-47.049,11.63L454.164,717.742
	c-16.207-9.782-21.411-30.846-11.63-47.049l44.514-73.746c9.781-16.204,30.842-21.411,47.049-11.631l435.187,262.688
	c16.206,9.781,21.41,30.846,11.63,47.05L936.399,968.8z"/>
<path fill="#E19026" d="M559.017,757.684c-5.706,9.452-17.991,12.489-27.446,6.783l0,0c-9.451-5.707-12.488-17.993-6.782-27.446
	l59.271-98.194c5.705-9.453,17.994-12.49,27.445-6.783l0,0c9.455,5.705,12.492,17.992,6.785,27.445L559.017,757.684z"/>
<path fill="#E19026" d="M617.695,793.103c-5.706,9.453-17.994,12.49-27.445,6.786l0,0c-9.452-5.706-12.489-17.994-6.783-27.446
	l59.271-98.194c5.706-9.453,17.994-12.49,27.445-6.785l0,0c9.455,5.707,12.492,17.993,6.786,27.446L617.695,793.103z"/>
<path fill="none" stroke="#E19026" stroke-width="80" stroke-miterlimit="10" d="M496.431,650.938
	C429.198,762.322,284.4,798.111,173.016,730.877C61.634,663.646,25.844,518.851,93.077,407.468
	c67.235-111.384,212.028-147.176,323.412-79.945C527.873,394.757,563.663,539.554,496.431,650.938z"/>
</svg>
